# xmcd
# 
# Track frame offsets:
#     150
#     18306
#     37119
#     53163
#     69904
#     89931
#     108011
#     126164
#     143240
#     160637
#     177956
#     199462
# 
# Disc length: 2874
# 
# Revision: 4
# Processed by: cddbd v1.5.2PL0 Copyright (c) Steve Scherf et al.
# Submitted via: fre:ac v1.0.17
# 
DISCID=a70b380c
DTITLE=O-ZONE - DiscO-Zone
DYEAR=2002
DGENRE=Dance
TTITLE0=Fiesta De La Noche
TTITLE1=De Ce Plang Chitarele
TTITLE2=Dragostea Din Tei
TTITLE3=Printre Nori
TTITLE4=Oriunde Ai Fi
TTITLE5=Numai Tu
TTITLE6=Dar, Unde Esti
TTITLE7=Despre Tine
TTITLE8=Sarbatoarea Noptilor De Vara
TTITLE9=Nu Ma Las De Limba Noastra...
TTITLE10=Crede-ma
TTITLE11=Ma Ya Hi (English Version)
EXTD=
EXTT0=
EXTT1=
EXTT2=
EXTT3=
EXTT4=
EXTT5=
EXTT6=
EXTT7=
EXTT8=
EXTT9=
EXTT10=
EXTT11=
PLAYORDER=
